<svg xmlns="http://www.w3.org/2000/svg" width="1301pt" height="1225pt" viewBox="0 0 1301 1225" fill-rule="evenodd"><path d="M581.1 80.1c-28.2 3.6-50.8 22.5-59 49.3-1.2 3.7-2.1 8.8-2.1 11.2 0 2.4-.3 4.4-.8 4.4-1 0-7.9-9-12.6-16.4-5.2-8.1-13.8-25.6-17.2-34.8-3.2-8.8-2.7-9.1-9.7 4.3-5.5 10.4-10.9 24.8-13.3 35.4-2.7 12-2.6 32.7.3 42 5.3 17 16.5 29.1 33.1 35.8 6.3 2.6 7.3 2.3 4.8-1.6-.8-1.2-3-6.5-4.8-11.7-2.9-8.6-3.2-10.6-3.3-21.5 0-6.6.3-13.2.7-14.6.8-2.6.9-2.5 9 5.8 12.3 12.6 23.7 20.5 32.9 22.8l2.5.6-.4-14.4c-.7-24.4 4-41.5 14.6-53 1.4-1.5 2.9-2.7 3.2-2.7.4 0 .7 2.4.9 5.2.3 7 2.6 18.5 5.7 28.2 2.6 8.2 6 15.6 7 15.6.4 0 3.5-2.7 7-6 19.5-18.1 50.9-32.7 79.9-36.9 20.1-3 29.9-3.6 56.5-3.6 26.4 0 39.7.8 56 3.5 19.9 3.3 26 4.5 38.5 7.7 45.7 11.6 89.2 32.2 139 65.7 9.9 6.7 18.6 12.5 19.5 13 2.9 1.6-19.6-20.6-29.5-29.2-38.9-33.9-86.8-60-135.5-74-50.2-14.5-120-18.5-167-9.7-20.2 3.8-39.1 10.2-50.4 17-3.8 2.3-5.8 3-6.1 2.2-.3-.7.1-5.3.9-10.2 1.5-10.5 4.9-18.3 10.6-24.8 2.2-2.5 4-4.8 4-5.1 0-.8-6.9-.6-14.9.5z"/><path d="M627.5 179.9c-20.2 3.3-40.2 11-55.1 21.2-6.1 4.3-14.7 11.9-11.9 10.7.6-.2 3.6-1.6 6.8-3.1 10.1-4.7 19.3-6.8 32.3-7.4 22.1-1 41.4 4.6 51.9 15.1 8.3 8.3 13.6 24.7 12 37.5-1.4 11.7-6.1 25.4-11.6 33.4-2.1 3-2 3 2-.8 11.8-11.3 23.3-34 26.7-53 4.7-26.8-2.1-45-19.2-51.5-6.6-2.4-24.7-3.6-33.9-2.1zm-141.3 46.5c-25.1 10.4-38.2 23.9-62.4 64.1-10.5 17.4-16.1 24.2-39.9 48.4-29.3 29.5-38.5 42-43.3 58-2.3 7.9-2 8.3 1.7 1.8 9.3-16.5 30.7-35.6 71-63.2 8.8-6.1 16.9-12.1 17.9-13.5 1-1.4 3.6-7.6 5.8-13.7 6-17.2 8.7-23.5 14.2-33.5 12.6-22.9 24.9-37 43.8-50 4.1-2.8.2-2.1-8.8 1.6z"/><path d="M597 225c-7.8 1-17.3 4.2-15.8 5.2.7.4 2.7.8 4.3.8 4.8 0 17.4 3.9 23.6 7.1 11.7 6.3 20.9 18.9 22.5 30.8.6 4.8.9 5.2 2 3.6 1.7-2.3 4.4-14.3 4.4-19.8 0-19.4-17.1-31-41-27.7zm-52.1 9.1c12.5 21.4 21.1 44.2 26.3 70.3 2 9.8 2.3 14 2.2 35.6 0 23.2-.2 25-2.7 34.3-8.3 31.1-23.6 43.3-47.7 38.3-14.1-2.9-29.7-12.3-44.8-27l-8.4-8.1 2.6 5.9c3.4 7.7 5.9 11.7 11.7 19.2 11.4 14.5 32.7 27.9 56.7 35.8 4.5 1.5 8.2 2.9 8.2 3 0 .2-1.4 3.6-3.1 7.7-1.6 4.1-5.9 15.3-9.4 24.9-20.7 57.1-29.8 108.7-26.7 150.7 1.4 17.3 3.5 28.7 8.3 43.3 3.1 9.5 12.1 28.3 15.9 33l2 2.5v-3.6c0-6.7 6.9-27.9 9.1-27.9.3 0 .9 3.7 1.2 8.2 1.5 21.4 10.2 42.3 26.6 64.3 12.7 16.9 42.1 47.7 32.2 33.7-3.6-5.2-14.9-24.8-19.5-33.9-9.5-19.1-15.9-37-19.7-55.6-2.3-11.6-4.8-40.7-5-59.2-.1-7.2-.4-15.9-.8-19.5l-.6-6.5-6.2 7.8c-7.2 9-10.7 14.6-13.9 22.5-1.4 3.4-2.5 5.1-2.8 4.2-.3-.8-1-6.4-1.6-12.4-3.2-34.2 1.4-69.4 14-106.1 5.7-16.3 10.3-27.7 23.6-57 17.1-38 23.6-55.6 27.1-72.9 2.1-10 2.3-36.3.4-49.1-3.9-27.6-15.7-58.5-31.1-81.9-7.1-10.6-18.5-23.7-24.3-27.8l-2.9-2.1 3.1 5.4z"/><path d="M454.9 305.7c-1 .2-2 1.9-2.3 3.7-.3 1.8-3.5 9-7.1 16.1-3.6 7.1-6.5 13-6.5 13.2 0 .1 2.1-1.2 4.8-3.1 12.9-9.2 34.6-15.5 53.7-15.6l8-.1-6.7-3.4c-16.5-8.5-35.3-13.1-43.9-10.8zm-86.3 97.8c-2.8 2.2-5.9 3.4-18.8 7-3.2.8-6.9 2.6-8.4 3.9l-2.7 2.3 4.5 7.4c2.5 4.1 6.4 10.6 8.7 14.6 2.3 4 4.6 7.5 5.2 7.8 4 2.6 11.5-16.9 13.9-36.3.6-4.6 1-8.6.8-8.7-.2-.2-1.6.7-3.2 2zm-4.6 55c0 .4 1.2 2.7 2.7 5.3 13.4 23.3 31.1 34.2 55.4 34.2 9.8 0 17.4-1.2 34.9-5.4 12.3-3 19.1-3.3 21.1-1 .8 1 1.3 3.9 1.3 7.5-.1 7.2-4.5 16.7-8.7 18.7-2.4 1.2-3.2 1-8-1.5-2.8-1.5-8.1-5.6-11.7-9.1-3.5-3.4-6.6-6.2-6.7-6.2-.2 0-.3 3.6-.3 8s-.2 8-.5 8-2.3-.9-4.5-2c-12.1-6.2-19.2 1.3-19.2 20.5 0 30.4 17.8 55.7 47.5 67.4 9.9 4 11.7 3.9 4.7-.1-6.8-3.9-19.4-16.6-23.8-24.1-8.6-14.3-14-32.5-11.4-38.3 1.1-2.4 1.6-2.6 5.1-2 2.1.3 7.4 2.2 11.7 4.2 21.2 9.7 32.1 12.2 39.5 9.1 14.8-6.2 24-53.4 14.5-74.3-3.8-8.2-10.2-11.4-22.6-11.4-8.6 0-16.8 1.9-33 7.5-34.1 11.9-43.5 12.3-62 3-7.2-3.6-13.2-7.7-20.2-13.7-3.2-2.7-5.8-4.6-5.8-4.3zm94 381.1c0 .3 1.5 3.8 3.3 7.7 4.1 8.8 11.1 15.6 19.5 18.7 7.4 2.9 18.6 2.4 25-.9 8.9-4.6 15.1-11.9 18.8-22.3l1.3-3.8h-16.4l-2 3.6c-3 5.5-7.7 8.7-13.9 9.2-7.1.6-11.9-1.8-16.3-8l-3.5-4.8h-7.9c-4.3 0-7.9.3-7.9.6zm705 40.4c-21.3 3.4-36.6 18.6-43.2 42.7-2.9 10.5-3.2 33.6-.5 43.3 5.7 21.2 20.2 36.5 39.2 41.5 7.5 1.9 24.2 1.9 31.4 0 11.6-3.1 22.1-10.1 28.3-19 3.7-5.2 8.1-16.3 9.1-22.7.7-4.6 1-4.5-16.3-5.3-7.4-.3-14.7-.8-16.1-1.1-2.4-.5-2.7-.2-3.2 4.1-1.5 10.3-7.5 16.5-16.1 16.5-5.7 0-9.7-1.9-12.9-6.2-3.7-5.1-4.8-10.3-5.4-24.4-1-25 3.8-39 14.4-41.4 10.1-2.4 18.1 5 19.8 18.3.6 5.4.9 5.8 2.8 5.4 1.2-.3 9.3-.9 17.9-1.3l15.8-.7-.6-4.1c-.9-6.9-4.4-17.8-7.2-22.6-6-10.3-15-17.6-26.3-21.1-7.1-2.2-23-3.2-30.9-1.9zM76 944.3v63.3h18.3l18.2-.1.3-49.8.2-49.7h29v49.4c0 42.1.2 49.5 1.4 49.9.8.3 9.4.6 19 .6H180V881H76v63.3zm127 .2v63.5l19.3-.2 19.2-.3.5-23 .5-23 18-.6c12.7-.4 19.2-1 22.1-2.1 19.3-7.4 28.6-21.4 27.1-41-1.5-19.1-14.9-32.6-35.4-35.7-4-.6-21.3-1.1-39.2-1.1H203v63.5zm63-32.9c6.9 4 7.3 14.9.7 19.8-2.4 1.8-4.6 2.2-14.3 2.4l-11.4.4v-25.4l10.8.3c8.5.3 11.4.8 14.2 2.5zm76.1-19.9c-1.8 6-5 16.2-7.1 22.8-2.1 6.6-6.3 20.1-9.3 30-3.1 9.9-8.7 28-12.5 40.3-3.8 12.2-6.6 22.4-6.3 22.6 1 .7 25.8.7 28.3.1 1.9-.5 2.8-2.1 5.1-9.8 1.5-5.1 3.3-10.4 3.9-12l1-2.7h34.5l2.4 8.7c1.3 4.9 2.9 10.4 3.5 12.3l1.2 3.5 17.3.3c19.3.4 22.4 0 21.4-2.6-.4-.9-6-18.8-12.6-39.7-17.6-56.2-21.8-69.3-24.3-77l-2.3-7-20.5-.3-20.5-.2-3.2 10.7zm21.5 31c.3 1.6 1.2 4.8 1.9 7.3s2 7.2 3 10.5c.9 3.3 2.1 7.3 2.6 8.9 1.7 5.6 1.7 5.6-9.2 5.6-8.5 0-10-.2-9.5-1.5.6-1.6 7.6-27.8 8.4-31.3.6-3 2-2.8 2.8.5zm74.6 21.5l.3 63.3 18.3.1 18.2.2v-13.1l11.2-19.1c6.2-10.5 13.8-23.9 16.8-29.8l5.5-10.6v72.3h37l.3-63.3.2-63.2h-38v13.8l-10.2 17.4c-5.5 9.5-13 22.8-16.5 29.5-3.6 6.8-6.5 12.3-6.6 12.3-.1 0-.1-16.4.1-36.5l.3-36.5H438l.2 63.2zm130 0l.3 63.3h28l.5-45c.3-28.1.8-43.9 1.4-42 .5 1.6 3 11.3 5.7 21.5 5.2 19.6 14.2 53.5 16.4 61l1.2 4.5 12.1.3c10.8.2 12.1.1 12.6-1.5.2-1 2.1-7.9 4-15.3 4.6-17.8 11.7-44.4 15.8-60l3.3-12.5.5 44.5.5 44.5 15.4.3c8.4.2 16.4.1 17.7-.2l2.4-.6V881h-50.9l-1.5 5.2c-.8 2.9-4.4 16.5-8 30.3-8.3 31.7-8.2 31.3-8.9 29.5-.3-.8-2.9-10.1-5.7-20.5-2.8-10.5-6.2-22.8-7.5-27.5-1.3-4.7-2.8-10.4-3.5-12.8l-1.1-4.2H568l.2 63.2zm207.5-45c6.4 10.1 15.1 23.9 19.4 30.7l7.7 12.5-3.2 5c-13.5 21.2-36.6 58.6-36.6 59.4 0 1.1 16.9 1.5 27.1.6l7.8-.7 11.7-19.4c6.4-10.7 11.8-19.2 12.1-19 .2.3 5.5 9.2 11.7 19.9l11.3 19.3h74.5l2.3-7.3c1.3-4.1 2.9-9.6 3.5-12.3l1.2-4.9 17.6.2 17.6.3 3.6 12 3.6 12 19.2.2c21.9.1 20.5.9 17.3-9.2-1.1-3.3-4.9-15.5-8.6-27-8.1-25.6-9.3-29.6-19-60.5-4.2-13.5-8.1-25.7-8.7-27.3l-1-2.7h-40.6l-1.1 3.2c-9.9 31.8-23 74.2-25.3 81.8-4.8 15.8-11.9 38.5-12.3 38.8-.2.2-1.6-1.6-3.1-4-10.4-16.4-29.5-46.6-33.6-53.1l-4.9-7.8 17.8-28.6c9.8-15.7 18-29 18.1-29.5.2-.4-7.4-.8-17-.8l-17.3.1-9.4 16c-5.1 8.8-9.7 16.2-10.1 16.4-.4.3-5-6.8-10.3-15.8l-9.4-16.2-22.6-.3-22.6-.2 11.6 18.2zm173.1 36.1c2.4 8.3 4.5 16.2 4.9 17.4.5 2.3.4 2.3-9.7 2.3-9.2 0-10.1-.2-9.6-1.8.2-.9 2.4-8.8 4.7-17.5 2.3-8.6 4.5-15.7 4.8-15.7.3 0 2.5 6.9 4.9 15.3zm58.6-46.6c2.3 4.3 6 10.9 8.1 14.8 2.1 3.8 11 20 19.7 36l16 29-1.8 3.3c-2.8 5.2-7.9 7.2-20 7.9l-10.5.6.3 13.6.3 13.6 13.8-.2c8.1-.2 16.1-.9 19.4-1.7 11.1-2.9 22.1-13.4 28-26.5 3-6.8 39.3-96.8 39.3-97.6 0-.3-7.6-.5-16.8-.5h-16.9l-2.6 6.7c-1.4 3.8-5.5 14.7-9.1 24.3l-6.5 17.5-4.9-10.5c-2.7-5.8-7.7-16.7-11.2-24.3l-6.3-13.7h-42.6l4.3 7.7zM346.8 1081c-18.3 1.7-22.4 7.4-21.7 30.7.4 10.8.6 12.2 3.2 16.6 7.2 12.3 24.2 11.6 30.9-1.2 4.8-9.2 3.2-19.7-4.1-26.6-2.7-2.5-4.1-3-9.9-3.3-6.2-.3-7-.1-11 2.8l-4.3 3.1.7-3.8c1.6-8.9 3.9-10.5 16.5-11.2 9-.5 10.3-.9 12-3 1-1.3 1.9-2.9 1.9-3.7 0-1.5-.7-1.6-14.2-.4zm2.1 22.3c8.2 4.2 8 21.7-.3 26.8-4 2.4-6.3 2.4-10.4-.1-6.1-3.7-8-13.6-4.2-21.5 2.9-6.1 9.1-8.2 14.9-5.2zm-127.9 5.1v27.6h12.8c7 0 14.5-.5 16.7-1 12-2.7 15.3-20 5-26.1-3.5-2.1-3.5-2.2-1.5-3.6 5-3.5 6.4-11.5 3-17-3.4-5.6-6.8-6.7-22.2-7.1l-13.8-.4v27.6zm28.4-18.3c2.3 1.8 2.7 2.8 2.4 6.2-.5 6.1-3.5 7.8-14.7 8.5l-9.1.5V1088h9.4c8 0 9.7.3 12 2.1zm.5 22.4c5.3 2.7 6.1 10.3 1.4 14.7-2.2 2-3.6 2.3-12.9 2.6l-10.4.4V1111h9.5c6.5 0 10.5.5 12.4 1.5zM627 1090c0 4.9-.3 9-.7 9-.5-.1-1.9-.7-3.3-1.5s-4.3-1.4-6.5-1.5c-10.2 0-16.7 10.6-14.9 24.6.7 6.2 3.5 10.9 8.3 14.1 4.2 2.8 8.5 2.9 13.4.3l3.7-2v18.7l3-.5 3-.4V1133l3.3 2c6.4 3.9 14.8 1.4 18.9-5.6 5.6-9.7 3.1-26.8-4.6-31.5-4-2.5-10.2-2.4-14.3.1l-3.3 2v-19h-6v9zm-4 13.8c5.2 5.3 5.2 20.1-.1 25.4-3 3.1-4.5 3.4-8.3 1.6-3.9-1.7-5.8-5.5-6.4-12.3-.5-7.4 1-12.7 4.5-15.5 3.5-2.8 6.9-2.5 10.3.8zm25 0c4.7 4.8 5.4 17.5 1.2 23.1-3.2 4.3-6.4 5.7-9.9 4.2-3.7-1.5-5.4-4.9-6-12.1-1.3-14.3 7-22.9 14.7-15.2zm-376.5-6.9c-.3.2-.5 9.1-.5 19.8v19.3h11.3c13.1 0 17.1-1.4 20.1-7.1 1.7-3.2 1.8-4.2.8-7.7-1.8-6-6.4-8.5-16.8-9l-8.3-.4-.3-7.6c-.3-7.5-.3-7.5-3.1-7.7-1.5 0-3 .1-3.2.4zm20.4 21.2c5.1 1.8 6.8 7.1 3.2 10.3-1.3 1.2-4.4 1.9-9.5 2.3l-7.6.6V1117h5.4c2.9 0 6.7.5 8.5 1.1zm17.6-21.2c-.3.2-.5 9.1-.5 19.8v19.3h7l-.2-19.7-.3-19.6-2.8-.1c-1.5-.1-3 0-3.2.3zm67 1.4c-5.6 3.1-8.7 9.6-8.7 18 .1 7.3 1.3 11.2 5 15 5.7 6 14.7 7.4 22.3 3.4 13.5-7.2 12.6-32.3-1.4-37.6-4.8-1.9-12.8-1.3-17.2 1.2zm17.1 5.8c3.2 3 4.7 8.1 4.2 14.6-.6 6.6-3.1 10.3-8.4 12.2-3.4 1.2-4.4 1.1-7.7-.2-9.3-3.9-10.3-21.6-1.6-27.5 4.2-2.9 9.9-2.5 13.5.9zm28.5-5.5c-3 2.5-3.1 2.5-3.1.5 0-1.7-.6-2.1-3-2.1h-3v54h6v-9c0-5 .2-9 .5-9 .2 0 1.9.9 3.7 2 4.2 2.5 8.8 2.5 13.7 0 5.1-2.6 7.6-5.9 9.1-12.1 2.4-9.9-.6-20.3-7-24.7-4.8-3.3-12.8-3.1-16.9.4zm14 5.2c3 2.7 3.2 3.4 3.6 10.8.5 9.6-1.4 14.1-7 16.2-3 1.2-3.9 1.2-7-.3-4.5-2.1-6.7-6.7-6.7-13.8 0-6.8 1.1-10 4.6-13.2 3.7-3.5 8.5-3.3 12.5.3zm82.3-6.4c-.2.6-.3 13-.2 27.6l.3 26.4h6l.3-9.2.3-9.2 3.7 2c13.2 7.1 26.8-7.3 23.2-24.5-2.6-12.5-14.8-18.5-24.4-12-3.3 2.2-3.6 2.3-3.6.6 0-2.1-4.9-3.6-5.6-1.7zm22.1 5.2c3.6 2.4 5.9 9.3 5.2 16-.7 6.5-2.5 9.7-6.8 11.9-8.8 4.6-16.6-5.5-14.4-18.6 1.5-8.6 9.7-13.4 16-9.3zm27.9-5.1c-4.7 2.1-8.1 6.8-9.4 13-1.4 6.8-.6 12.7 2.6 18.2 5.4 9.3 19.4 11.1 27.8 3.4 4.1-3.7 5.6-8 5.6-15.9 0-13-6.5-20.2-18-20.1-3 0-6.9.7-8.6 1.4zm13.6 5c4.3 2.2 6.4 6.9 6.4 14 .1 7.3-2.3 11.7-7.3 14.1-3.1 1.5-4 1.5-7.5.3-6.1-2.2-8.1-5.7-8.1-14.4 0-5.9.4-7.9 2.1-10.2 3.9-5.2 9.1-6.6 14.4-3.8zm91.8-4.5c-7.5 4-11.3 14.2-9 24 1.6 6.8 4.2 10.3 9.5 12.9 8.3 4 19.6 1.6 23.7-5.1 2.8-4.6 2.6-5.8-1.2-5.8-2.6 0-3.7.6-5 2.9-2.3 4.2-8.1 5.8-13 3.8-4.1-1.7-6.5-4.8-7.4-9.5l-.6-3.2h14.5c8 0 14.8-.4 15.1-.9 1-1.5-1.3-11.5-3.2-14-3.5-4.8-6.9-6.5-13.5-6.8-4.7-.3-7.1.1-9.9 1.7zm14.9 5c3 1.8 5.7 7.3 4.6 9.2-.5.9-20.7 1.1-21.6.2-1.1-1.1 1.5-6.4 4.5-8.9 3.6-3 8.1-3.2 12.5-.5zm27.6-4.9c-10.2 5-12.4 25.9-3.6 34 7.7 7.2 21 5.9 26.1-2.3 3.2-5.2 2.9-7.8-.8-7.8-1.9 0-3 .5-3 1.4 0 2.5-4.9 7.4-8 8.1-4.5 1-9.5-1.9-11.4-6.6-2-4.9-2.1-12.9-.2-17.4 3.2-7.5 13.8-8.6 17.8-1.9 1.6 2.8 2.6 3.4 4.2 3 1.2-.3 2.5-.6 2.9-.6 1.3 0-.3-4.3-2.7-6.8-5-5.6-13.8-6.9-21.3-3.1zm39.7-1c-6.9 2.8-10 8.9-10 19.8 0 9.7 2.5 14.6 9 17.8 9.7 4.9 21.3.8 23.9-8.5 1.1-3.6.7-4.2-2.9-4.2-2.2 0-2.9.6-3.6 3.2-1.2 4.2-6.7 7.4-10.8 6.4-7-1.7-10.7-9.9-9.1-19.7 1-5.8 6-10.9 10.7-10.9 4 0 7.6 2.3 8.9 5.7.8 2.1 1.4 2.4 3.7 1.8 1.5-.4 2.9-.9 3.2-1.1 1.2-1.2-3.8-8.1-7-9.6-3.8-2-12-2.3-16-.7zm30 19.2v19.8l3.7-.3c3.5-.3 3.9-.7 12-13.8 4.6-7.4 8.8-13.9 9.3-14.4.7-.7 1 4.3 1 13.7v14.7h6v-39.5l-2.8.1c-1.6 0-3.3.4-3.9.7-.5.3-4.7 6.7-9.3 14.2-4.6 7.5-8.7 13.8-9.2 14.1-.4.3-.8-6.1-.8-14.3v-14.8h-6v19.8zm51-19.2c-7.9 3.2-12.1 12.6-10.5 23.9.9 6.5 4 11 9.5 13.7 5.4 2.8 11.1 2.9 16.6.4 7.6-3.5 10.9-10.1 10.2-21.1-.4-7.9-3.1-12.7-8.9-15.9-4-2.3-12.5-2.7-16.9-1zm13 5.4c4.7 2.4 6.3 6.6 5.8 15.1-.3 6.8-.6 7.7-3.6 10.6-5.7 5.8-14.7 3.7-17.9-4-1.8-4.3-1.4-14.5.7-17.9 3.1-4.9 9.6-6.6 15-3.8zm21.5-5.7c-.3.3-.5 9.2-.5 19.9v19.3h7v-18.1l9.3.3 9.2.3.3 8.7.3 8.8h5.9v-39.7l-3 .5-3 .4v15.8h-19v-15.8l-3-.4c-1.7-.3-3.2-.2-3.5 0zm48.9.6c-3.6 1.6-7.4 6.1-7.4 8.7 0 3 5.7 2.6 7.2-.5 3.4-7.5 18.8-5.1 18.8 3 0 2.5-2.6 3.5-12.5 4.9-7.3 1-11.2 2.9-13.5 6.7-2.4 4-2.5 6-.4 10.3 3.1 6.6 13.4 8.3 22.4 3.6 4.9-2.6 4.6-2.5 5.3-.1.4 1.4 1.4 2 3.4 2h2.8l-.3-14.2c-.4-17.6-1.2-21.2-5.5-23.8-3.8-2.4-15.4-2.7-20.3-.6zm17.2 28.4c-3.1 6-12.8 8.1-17.1 3.7-5.2-5.1-2.1-8.8 9.5-11.2l8.5-1.8.3 3.2c.2 1.7-.4 4.5-1.2 6.1zm22.2-13c-.3 17.4-.6 18.2-5.5 18.2-1.8 0-2.3.6-2.3 2.5 0 2.3.3 2.5 5 2.5 3.8 0 5.4-.5 7-2.2 1.8-2 2-3.5 2-17V1102h18v34h7l-.2-19.6-.3-19.5-15.2-.2-15.1-.2-.4 16.3zm50-15.5c-7.2 3.3-10.1 8.6-10.2 18.7 0 9 2.4 14.6 7.9 18 10.1 6.2 24.6 1.5 27.5-8.8 3.1-11.2-.1-22.8-7.5-26.9-4.5-2.5-13.1-3-17.7-1zm13.2 5.2c4.3 2.2 6.4 6.9 6.4 14 0 7.4-2.3 11.8-7.3 14.1-3.1 1.5-4 1.5-7.5.3-6.1-2.2-8.1-5.7-8.1-14.4 0-5.9.4-7.9 2.1-10.2 3.9-5.2 9.1-6.6 14.4-3.8zm22-6s-.1 8.9-.3 19.8l-.2 19.7h11.5c13.8 0 17.7-1.4 19.8-7.2 1.7-4.5 1-8.2-2.3-11.2-2.3-2.2-2.3-2.2-.4-4.6 3.3-4.4 1.8-12.4-2.9-14.6-1.2-.6-18.9-1.9-25.2-1.9zm20.4 6.5c2 .7 2.6 1.7 2.6 3.9 0 4.8-2.2 6.1-10.1 6.1h-6.9v-11h5.9c3.3 0 7.1.4 8.5 1zm2.8 17.7c2.2 2 2.4 6.6.2 8.3-.8.8-5.1 1.5-9.5 1.8l-7.9.5V1119h7.7c5.7 0 8.1.4 9.5 1.7zm-591.2-4.2v19.5h6v-34h18v34h7v-39h-31v19.5z"/></svg>